{
    "asset" : {
        "generator" : "Khronos glTF Blender I/O v1.6.16",
        "version" : "2.0"
    },
    "scene" : 0,
    "scenes" : [
        {
            "name" : "Scene",
            "nodes" : [
                0
            ]
        }
    ],
    "nodes" : [
        {
            "mesh" : 0,
            "name" : "Suzanne1"
        }
    ],
    "meshes" : [
        {
            "name" : "Suzanne.001",
            "primitives" : [
                {
                    "attributes" : {
                        "POSITION" : 0,
                        "NORMAL" : 1,
                        "TEXCOORD_0" : 2
                    },
                    "indices" : 3
                }
            ]
        }
    ],
    "accessors" : [
        {
            "bufferView" : 0,
            "componentType" : 5126,
            "count" : 2568,
            "max" : [
                1.3671875,
                1.1205313205718994,
                0.8515625
            ],
            "min" : [
                -1.3671875,
                -0.8482186794281006,
                -0.8515625
            ],
            "type" : "VEC3"
        },
        {
            "bufferView" : 1,
            "componentType" : 5126,
            "count" : 2568,
            "type" : "VEC3"
        },
        {
            "bufferView" : 2,
            "componentType" : 5126,
            "count" : 2568,
            "type" : "VEC2"
        },
        {
            "bufferView" : 3,
            "componentType" : 5123,
            "count" : 2580,
            "type" : "SCALAR"
        }
    ],
    "bufferViews" : [
        {
            "buffer" : 0,
            "byteLength" : 30816,
            "byteOffset" : 0
        },
        {
            "buffer" : 0,
            "byteLength" : 30816,
            "byteOffset" : 30816
        },
        {
            "buffer" : 0,
            "byteLength" : 20544,
            "byteOffset" : 61632
        },
        {
            "buffer" : 0,
            "byteLength" : 5160,
            "byteOffset" : 82176
        }
    ],
    "buffers" : [
        {
            "byteLength" : 87336,
            "uri" : "suzanne1.bin"
        }
    ]
}
