{
    "asset" : {
        "generator" : "Khronos glTF Blender I/O v1.6.16",
        "version" : "2.0"
    },
    "scene" : 0,
    "scenes" : [
        {
            "name" : "Scene",
            "nodes" : [
                0
            ]
        }
    ],
    "nodes" : [
        {
            "mesh" : 0,
            "name" : "decanter_with_wine.004"
        }
    ],
    "materials" : [
        {
            "doubleSided" : true,
            "name" : "glass_Mat",
            "pbrMetallicRoughness" : {
                "baseColorFactor" : [
                    0.800000011920929,
                    0.800000011920929,
                    0.800000011920929,
                    1
                ],
                "metallicFactor" : 0,
                "roughnessFactor" : 0.5
            }
        }
    ],
    "meshes" : [
        {
            "name" : "decanter_with_wine.005",
            "primitives" : [
                {
                    "attributes" : {
                        "POSITION" : 0,
                        "NORMAL" : 1,
                        "TEXCOORD_0" : 2
                    },
                    "indices" : 3,
                    "material" : 0
                }
            ]
        }
    ],
    "accessors" : [
        {
            "bufferView" : 0,
            "componentType" : 5126,
            "count" : 1162,
            "max" : [
                1.0762056112289429,
                -0.012089543044567108,
                1.0755771398544312
            ],
            "min" : [
                -1.0761945247650146,
                -5.2083916664123535,
                -1.075597882270813
            ],
            "type" : "VEC3"
        },
        {
            "bufferView" : 1,
            "componentType" : 5126,
            "count" : 1162,
            "type" : "VEC3"
        },
        {
            "bufferView" : 2,
            "componentType" : 5126,
            "count" : 1162,
            "type" : "VEC2"
        },
        {
            "bufferView" : 3,
            "componentType" : 5123,
            "count" : 6696,
            "type" : "SCALAR"
        }
    ],
    "bufferViews" : [
        {
            "buffer" : 0,
            "byteLength" : 13944,
            "byteOffset" : 0
        },
        {
            "buffer" : 0,
            "byteLength" : 13944,
            "byteOffset" : 13944
        },
        {
            "buffer" : 0,
            "byteLength" : 9296,
            "byteOffset" : 27888
        },
        {
            "buffer" : 0,
            "byteLength" : 13392,
            "byteOffset" : 37184
        }
    ],
    "buffers" : [
        {
            "byteLength" : 50576,
            "uri" : "wine_glass.bin"
        }
    ]
}
