{
    "asset" : {
        "generator" : "Khronos glTF Blender I/O v1.6.16",
        "version" : "2.0"
    },
    "scene" : 0,
    "scenes" : [
        {
            "name" : "Scene",
            "nodes" : [
                0
            ]
        }
    ],
    "nodes" : [
        {
            "mesh" : 0,
            "name" : "Suzanne"
        }
    ],
    "meshes" : [
        {
            "name" : "Suzanne",
            "primitives" : [
                {
                    "attributes" : {
                        "POSITION" : 0,
                        "NORMAL" : 1,
                        "TEXCOORD_0" : 2
                    },
                    "indices" : 3
                }
            ]
        }
    ],
    "accessors" : [
        {
            "bufferView" : 0,
            "componentType" : 5126,
            "count" : 1460,
            "max" : [
                0.8593751192092896,
                0.984375,
                0.8515625
            ],
            "min" : [
                -0.8593751192092896,
                -0.7578123807907104,
                0.4453125
            ],
            "type" : "VEC3"
        },
        {
            "bufferView" : 1,
            "componentType" : 5126,
            "count" : 1460,
            "type" : "VEC3"
        },
        {
            "bufferView" : 2,
            "componentType" : 5126,
            "count" : 1460,
            "type" : "VEC2"
        },
        {
            "bufferView" : 3,
            "componentType" : 5123,
            "count" : 1470,
            "type" : "SCALAR"
        }
    ],
    "bufferViews" : [
        {
            "buffer" : 0,
            "byteLength" : 17520,
            "byteOffset" : 0
        },
        {
            "buffer" : 0,
            "byteLength" : 17520,
            "byteOffset" : 17520
        },
        {
            "buffer" : 0,
            "byteLength" : 11680,
            "byteOffset" : 35040
        },
        {
            "buffer" : 0,
            "byteLength" : 2940,
            "byteOffset" : 46720
        }
    ],
    "buffers" : [
        {
            "byteLength" : 49660,
            "uri" : "suzanne.bin"
        }
    ]
}
