{
    "asset" : {
        "generator" : "Khronos glTF Blender I/O v1.6.16",
        "version" : "2.0"
    },
    "scene" : 0,
    "scenes" : [
        {
            "name" : "Scene",
            "nodes" : [
                0
            ]
        }
    ],
    "nodes" : [
        {
            "mesh" : 0,
            "name" : "human_head_high_fixed"
        }
    ],
    "meshes" : [
        {
            "name" : "Head.002",
            "primitives" : [
                {
                    "attributes" : {
                        "POSITION" : 0,
                        "NORMAL" : 1,
                        "TEXCOORD_0" : 2
                    },
                    "indices" : 3
                }
            ]
        }
    ],
    "accessors" : [
        {
            "bufferView" : 0,
            "componentType" : 5126,
            "count" : 3235,
            "max" : [
                5.273682117462158,
                -0.002286412985995412,
                7.591885566711426
            ],
            "min" : [
                -4.9037184715271,
                -11.957808494567871,
                -2.9958443641662598
            ],
            "type" : "VEC3"
        },
        {
            "bufferView" : 1,
            "componentType" : 5126,
            "count" : 3235,
            "type" : "VEC3"
        },
        {
            "bufferView" : 2,
            "componentType" : 5126,
            "count" : 3235,
            "type" : "VEC2"
        },
        {
            "bufferView" : 3,
            "componentType" : 5123,
            "count" : 15588,
            "type" : "SCALAR"
        }
    ],
    "bufferViews" : [
        {
            "buffer" : 0,
            "byteLength" : 38820,
            "byteOffset" : 0
        },
        {
            "buffer" : 0,
            "byteLength" : 38820,
            "byteOffset" : 38820
        },
        {
            "buffer" : 0,
            "byteLength" : 25880,
            "byteOffset" : 77640
        },
        {
            "buffer" : 0,
            "byteLength" : 31176,
            "byteOffset" : 103520
        }
    ],
    "buffers" : [
        {
            "byteLength" : 134696,
            "uri" : "human_head_high.bin"
        }
    ]
}
