{
    "asset" : {
        "generator" : "Khronos glTF Blender I/O v1.6.16",
        "version" : "2.0"
    },
    "scene" : 0,
    "scenes" : [
        {
            "name" : "Scene",
            "nodes" : [
                0
            ]
        }
    ],
    "nodes" : [
        {
            "mesh" : 0,
            "name" : "human_head"
        }
    ],
    "meshes" : [
        {
            "name" : "Head",
            "primitives" : [
                {
                    "attributes" : {
                        "POSITION" : 0,
                        "NORMAL" : 1,
                        "TEXCOORD_0" : 2
                    },
                    "indices" : 3
                }
            ]
        }
    ],
    "accessors" : [
        {
            "bufferView" : 0,
            "componentType" : 5126,
            "count" : 5196,
            "max" : [
                10.726264953613281,
                23.991430282592773,
                15.216872215270996
            ],
            "min" : [
                -9.882420539855957,
                -0.0012072157114744186,
                -6.0843281745910645
            ],
            "type" : "VEC3"
        },
        {
            "bufferView" : 1,
            "componentType" : 5126,
            "count" : 5196,
            "type" : "VEC3"
        },
        {
            "bufferView" : 2,
            "componentType" : 5126,
            "count" : 5196,
            "type" : "VEC2"
        },
        {
            "bufferView" : 3,
            "componentType" : 5123,
            "count" : 5196,
            "type" : "SCALAR"
        }
    ],
    "bufferViews" : [
        {
            "buffer" : 0,
            "byteLength" : 62352,
            "byteOffset" : 0
        },
        {
            "buffer" : 0,
            "byteLength" : 62352,
            "byteOffset" : 62352
        },
        {
            "buffer" : 0,
            "byteLength" : 41568,
            "byteOffset" : 124704
        },
        {
            "buffer" : 0,
            "byteLength" : 10392,
            "byteOffset" : 166272
        }
    ],
    "buffers" : [
        {
            "byteLength" : 176664,
            "uri" : "human_head.bin"
        }
    ]
}
