{
    "asset" : {
        "generator" : "Khronos glTF Blender I/O v1.6.16",
        "version" : "2.0"
    },
    "scene" : 0,
    "scenes" : [
        {
            "name" : "Scene",
            "nodes" : [
                0
            ]
        }
    ],
    "nodes" : [
        {
            "mesh" : 0,
            "name" : "AlbertEinstein_fixed"
        }
    ],
    "materials" : [
        {
            "doubleSided" : true,
            "name" : "Material",
            "pbrMetallicRoughness" : {
                "baseColorFactor" : [
                    0.800000011920929,
                    0.800000011920929,
                    0.800000011920929,
                    1
                ],
                "metallicFactor" : 0,
                "roughnessFactor" : 0.5
            }
        }
    ],
    "meshes" : [
        {
            "name" : "AlbertEinstein.002",
            "primitives" : [
                {
                    "attributes" : {
                        "POSITION" : 0,
                        "NORMAL" : 1,
                        "TEXCOORD_0" : 2
                    },
                    "indices" : 3,
                    "material" : 0
                }
            ]
        }
    ],
    "accessors" : [
        {
            "bufferView" : 0,
            "componentType" : 5126,
            "count" : 3626,
            "max" : [
                2.5730631351470947,
                -0.0879204124212265,
                3.0115694999694824
            ],
            "min" : [
                -2.5730631351470947,
                -5.406933784484863,
                -2.386265516281128
            ],
            "type" : "VEC3"
        },
        {
            "bufferView" : 1,
            "componentType" : 5126,
            "count" : 3626,
            "type" : "VEC3"
        },
        {
            "bufferView" : 2,
            "componentType" : 5126,
            "count" : 3626,
            "type" : "VEC2"
        },
        {
            "bufferView" : 3,
            "componentType" : 5123,
            "count" : 17946,
            "type" : "SCALAR"
        }
    ],
    "bufferViews" : [
        {
            "buffer" : 0,
            "byteLength" : 43512,
            "byteOffset" : 0
        },
        {
            "buffer" : 0,
            "byteLength" : 43512,
            "byteOffset" : 43512
        },
        {
            "buffer" : 0,
            "byteLength" : 29008,
            "byteOffset" : 87024
        },
        {
            "buffer" : 0,
            "byteLength" : 35892,
            "byteOffset" : 116032
        }
    ],
    "buffers" : [
        {
            "byteLength" : 151924,
            "uri" : "alberd_low_sym.bin"
        }
    ]
}
