{
    "asset" : {
        "generator" : "Khronos glTF Blender I/O v1.6.16",
        "version" : "2.0"
    },
    "scene" : 0,
    "scenes" : [
        {
            "name" : "Scene",
            "nodes" : [
                0
            ]
        }
    ],
    "nodes" : [
        {
            "mesh" : 0,
            "name" : "AlbertEinstein.001"
        }
    ],
    "materials" : [
        {
            "doubleSided" : true,
            "name" : "Material",
            "pbrMetallicRoughness" : {
                "baseColorFactor" : [
                    0.800000011920929,
                    0.800000011920929,
                    0.800000011920929,
                    1
                ],
                "metallicFactor" : 0,
                "roughnessFactor" : 0.5
            }
        }
    ],
    "meshes" : [
        {
            "name" : "AlbertEinstein.001",
            "primitives" : [
                {
                    "attributes" : {
                        "POSITION" : 0,
                        "NORMAL" : 1,
                        "TEXCOORD_0" : 2
                    },
                    "indices" : 3,
                    "material" : 0
                }
            ]
        }
    ],
    "accessors" : [
        {
            "bufferView" : 0,
            "componentType" : 5126,
            "count" : 33746,
            "max" : [
                2.5617613792419434,
                -0.08744649589061737,
                3.0014631748199463
            ],
            "min" : [
                -2.5617613792419434,
                -5.459879398345947,
                -2.37070894241333
            ],
            "type" : "VEC3"
        },
        {
            "bufferView" : 1,
            "componentType" : 5126,
            "count" : 33746,
            "type" : "VEC3"
        },
        {
            "bufferView" : 2,
            "componentType" : 5126,
            "count" : 33746,
            "type" : "VEC2"
        },
        {
            "bufferView" : 3,
            "componentType" : 5123,
            "count" : 114768,
            "type" : "SCALAR"
        }
    ],
    "bufferViews" : [
        {
            "buffer" : 0,
            "byteLength" : 404952,
            "byteOffset" : 0
        },
        {
            "buffer" : 0,
            "byteLength" : 404952,
            "byteOffset" : 404952
        },
        {
            "buffer" : 0,
            "byteLength" : 269968,
            "byteOffset" : 809904
        },
        {
            "buffer" : 0,
            "byteLength" : 229536,
            "byteOffset" : 1079872
        }
    ],
    "buffers" : [
        {
            "byteLength" : 1309408,
            "uri" : "alberd_high.bin"
        }
    ]
}
