{
    "asset" : {
        "generator" : "Khronos glTF Blender I/O v1.6.16",
        "version" : "2.0"
    },
    "scene" : 0,
    "scenes" : [
        {
            "name" : "Scene",
            "nodes" : [
                0
            ]
        }
    ],
    "nodes" : [
        {
            "mesh" : 0,
            "name" : "AlbertEinstein.001"
        }
    ],
    "materials" : [
        {
            "doubleSided" : true,
            "name" : "Material",
            "pbrMetallicRoughness" : {
                "baseColorFactor" : [
                    0.800000011920929,
                    0.800000011920929,
                    0.800000011920929,
                    1
                ],
                "metallicFactor" : 0,
                "roughnessFactor" : 0.5
            }
        }
    ],
    "meshes" : [
        {
            "name" : "AlbertEinstein.001",
            "primitives" : [
                {
                    "attributes" : {
                        "POSITION" : 0,
                        "NORMAL" : 1,
                        "TEXCOORD_0" : 2
                    },
                    "indices" : 3,
                    "material" : 0
                }
            ]
        }
    ],
    "accessors" : [
        {
            "bufferView" : 0,
            "componentType" : 5126,
            "count" : 3832,
            "max" : [
                2.5682108402252197,
                -0.08666546642780304,
                3.0071589946746826
            ],
            "min" : [
                -2.5682108402252197,
                -5.4625630378723145,
                -2.3820438385009766
            ],
            "type" : "VEC3"
        },
        {
            "bufferView" : 1,
            "componentType" : 5126,
            "count" : 3832,
            "type" : "VEC3"
        },
        {
            "bufferView" : 2,
            "componentType" : 5126,
            "count" : 3832,
            "type" : "VEC2"
        },
        {
            "bufferView" : 3,
            "componentType" : 5123,
            "count" : 19128,
            "type" : "SCALAR"
        }
    ],
    "bufferViews" : [
        {
            "buffer" : 0,
            "byteLength" : 45984,
            "byteOffset" : 0
        },
        {
            "buffer" : 0,
            "byteLength" : 45984,
            "byteOffset" : 45984
        },
        {
            "buffer" : 0,
            "byteLength" : 30656,
            "byteOffset" : 91968
        },
        {
            "buffer" : 0,
            "byteLength" : 38256,
            "byteOffset" : 122624
        }
    ],
    "buffers" : [
        {
            "byteLength" : 160880,
            "uri" : "alberd_low_sym.bin"
        }
    ]
}
