{
    "asset" : {
        "generator" : "Khronos glTF Blender I/O v1.6.16",
        "version" : "2.0"
    },
    "scene" : 0,
    "scenes" : [
        {
            "name" : "Scene",
            "nodes" : [
                0
            ]
        }
    ],
    "nodes" : [
        {
            "mesh" : 0,
            "name" : "Icosphere"
        }
    ],
    "meshes" : [
        {
            "name" : "Icosphere",
            "primitives" : [
                {
                    "attributes" : {
                        "POSITION" : 0,
                        "NORMAL" : 1,
                        "TEXCOORD_0" : 2
                    },
                    "indices" : 3
                }
            ]
        }
    ],
    "accessors" : [
        {
            "bufferView" : 0,
            "componentType" : 5126,
            "count" : 4452,
            "max" : [
                3.8922572135925293,
                0.23231005668640137,
                3.894841432571411
            ],
            "min" : [
                -3.8922574520111084,
                -7.267772674560547,
                -3.894841432571411
            ],
            "type" : "VEC3"
        },
        {
            "bufferView" : 1,
            "componentType" : 5126,
            "count" : 4452,
            "type" : "VEC3"
        },
        {
            "bufferView" : 2,
            "componentType" : 5126,
            "count" : 4452,
            "type" : "VEC2"
        },
        {
            "bufferView" : 3,
            "componentType" : 5123,
            "count" : 21600,
            "type" : "SCALAR"
        }
    ],
    "bufferViews" : [
        {
            "buffer" : 0,
            "byteLength" : 53424,
            "byteOffset" : 0
        },
        {
            "buffer" : 0,
            "byteLength" : 53424,
            "byteOffset" : 53424
        },
        {
            "buffer" : 0,
            "byteLength" : 35616,
            "byteOffset" : 106848
        },
        {
            "buffer" : 0,
            "byteLength" : 43200,
            "byteOffset" : 142464
        }
    ],
    "buffers" : [
        {
            "byteLength" : 185664,
            "uri" : "sphere.bin"
        }
    ]
}
