{
    "asset" : {
        "generator" : "Khronos glTF Blender I/O v1.6.16",
        "version" : "2.0"
    },
    "scene" : 0,
    "scenes" : [
        {
            "name" : "Scene",
            "nodes" : [
                0
            ]
        }
    ],
    "nodes" : [
        {
            "mesh" : 0,
            "name" : "screw.001"
        }
    ],
    "meshes" : [
        {
            "name" : "Circle.001",
            "primitives" : [
                {
                    "attributes" : {
                        "POSITION" : 0,
                        "NORMAL" : 1,
                        "TEXCOORD_0" : 2
                    },
                    "indices" : 3
                }
            ]
        }
    ],
    "accessors" : [
        {
            "bufferView" : 0,
            "componentType" : 5126,
            "count" : 1617,
            "max" : [
                1.3956376314163208,
                0.20020297169685364,
                1.3956375122070312
            ],
            "min" : [
                -1.3956375122070312,
                -5.200202941894531,
                -1.3956375122070312
            ],
            "type" : "VEC3"
        },
        {
            "bufferView" : 1,
            "componentType" : 5126,
            "count" : 1617,
            "type" : "VEC3"
        },
        {
            "bufferView" : 2,
            "componentType" : 5126,
            "count" : 1617,
            "type" : "VEC2"
        },
        {
            "bufferView" : 3,
            "componentType" : 5123,
            "count" : 9600,
            "type" : "SCALAR"
        }
    ],
    "bufferViews" : [
        {
            "buffer" : 0,
            "byteLength" : 19404,
            "byteOffset" : 0
        },
        {
            "buffer" : 0,
            "byteLength" : 19404,
            "byteOffset" : 19404
        },
        {
            "buffer" : 0,
            "byteLength" : 12936,
            "byteOffset" : 38808
        },
        {
            "buffer" : 0,
            "byteLength" : 19200,
            "byteOffset" : 51744
        }
    ],
    "buffers" : [
        {
            "byteLength" : 70944,
            "uri" : "screw.bin"
        }
    ]
}
