{
    "asset" : {
        "generator" : "Khronos glTF Blender I/O v1.6.16",
        "version" : "2.0"
    },
    "scene" : 0,
    "scenes" : [
        {
            "name" : "Scene",
            "nodes" : [
                0
            ]
        }
    ],
    "nodes" : [
        {
            "mesh" : 0,
            "name" : "Cylinder"
        }
    ],
    "meshes" : [
        {
            "name" : "Cylinder.001",
            "primitives" : [
                {
                    "attributes" : {
                        "POSITION" : 0,
                        "NORMAL" : 1,
                        "TEXCOORD_0" : 2
                    },
                    "indices" : 3
                }
            ]
        }
    ],
    "accessors" : [
        {
            "bufferView" : 0,
            "componentType" : 5126,
            "count" : 9403,
            "max" : [
                1,
                0,
                1
            ],
            "min" : [
                -1,
                -2.000000238418579,
                -1
            ],
            "type" : "VEC3"
        },
        {
            "bufferView" : 1,
            "componentType" : 5126,
            "count" : 9403,
            "type" : "VEC3"
        },
        {
            "bufferView" : 2,
            "componentType" : 5126,
            "count" : 9403,
            "type" : "VEC2"
        },
        {
            "bufferView" : 3,
            "componentType" : 5123,
            "count" : 16512,
            "type" : "SCALAR"
        }
    ],
    "bufferViews" : [
        {
            "buffer" : 0,
            "byteLength" : 112836,
            "byteOffset" : 0
        },
        {
            "buffer" : 0,
            "byteLength" : 112836,
            "byteOffset" : 112836
        },
        {
            "buffer" : 0,
            "byteLength" : 75224,
            "byteOffset" : 225672
        },
        {
            "buffer" : 0,
            "byteLength" : 33024,
            "byteOffset" : 300896
        }
    ],
    "buffers" : [
        {
            "byteLength" : 333920,
            "uri" : "test.bin"
        }
    ]
}
