{
    "asset" : {
        "generator" : "Khronos glTF Blender I/O v1.6.16",
        "version" : "2.0"
    },
    "scene" : 0,
    "scenes" : [
        {
            "name" : "Scene",
            "nodes" : [
                0
            ]
        }
    ],
    "nodes" : [
        {
            "mesh" : 0,
            "name" : "Suzanne"
        }
    ],
    "meshes" : [
        {
            "name" : "Suzanne",
            "primitives" : [
                {
                    "attributes" : {
                        "POSITION" : 0,
                        "NORMAL" : 1,
                        "TEXCOORD_0" : 2
                    },
                    "indices" : 3
                }
            ]
        }
    ],
    "accessors" : [
        {
            "bufferView" : 0,
            "componentType" : 5126,
            "count" : 2603,
            "max" : [
                3.675499439239502,
                -0.07822990417480469,
                1.7972604036331177
            ],
            "min" : [
                -3.675313711166382,
                -5.371858596801758,
                -2.635510206222534
            ],
            "type" : "VEC3"
        },
        {
            "bufferView" : 1,
            "componentType" : 5126,
            "count" : 2603,
            "type" : "VEC3"
        },
        {
            "bufferView" : 2,
            "componentType" : 5126,
            "count" : 2603,
            "type" : "VEC2"
        },
        {
            "bufferView" : 3,
            "componentType" : 5123,
            "count" : 10572,
            "type" : "SCALAR"
        }
    ],
    "bufferViews" : [
        {
            "buffer" : 0,
            "byteLength" : 31236,
            "byteOffset" : 0
        },
        {
            "buffer" : 0,
            "byteLength" : 31236,
            "byteOffset" : 31236
        },
        {
            "buffer" : 0,
            "byteLength" : 20824,
            "byteOffset" : 62472
        },
        {
            "buffer" : 0,
            "byteLength" : 21144,
            "byteOffset" : 83296
        }
    ],
    "buffers" : [
        {
            "byteLength" : 104440,
            "uri" : "suzanne_head.bin"
        }
    ]
}
