{
    "asset" : {
        "generator" : "Khronos glTF Blender I/O v1.6.16",
        "version" : "2.0"
    },
    "scene" : 0,
    "scenes" : [
        {
            "name" : "Scene",
            "nodes" : [
                0
            ]
        }
    ],
    "nodes" : [
        {
            "mesh" : 0,
            "name" : "suzanne_head"
        }
    ],
    "meshes" : [
        {
            "name" : "Suzanne",
            "primitives" : [
                {
                    "attributes" : {
                        "POSITION" : 0,
                        "NORMAL" : 1,
                        "TEXCOORD_0" : 2
                    },
                    "indices" : 3
                }
            ]
        }
    ],
    "accessors" : [
        {
            "bufferView" : 0,
            "componentType" : 5126,
            "count" : 7776,
            "max" : [
                17.526884078979492,
                22.204946517944336,
                10.850997924804688
            ],
            "min" : [
                -17.526884078979492,
                -3.0387396812438965,
                -10.287518501281738
            ],
            "type" : "VEC3"
        },
        {
            "bufferView" : 1,
            "componentType" : 5126,
            "count" : 7776,
            "type" : "VEC3"
        },
        {
            "bufferView" : 2,
            "componentType" : 5126,
            "count" : 7776,
            "type" : "VEC2"
        },
        {
            "bufferView" : 3,
            "componentType" : 5123,
            "count" : 11664,
            "type" : "SCALAR"
        }
    ],
    "bufferViews" : [
        {
            "buffer" : 0,
            "byteLength" : 93312,
            "byteOffset" : 0
        },
        {
            "buffer" : 0,
            "byteLength" : 93312,
            "byteOffset" : 93312
        },
        {
            "buffer" : 0,
            "byteLength" : 62208,
            "byteOffset" : 186624
        },
        {
            "buffer" : 0,
            "byteLength" : 23328,
            "byteOffset" : 248832
        }
    ],
    "buffers" : [
        {
            "byteLength" : 272160,
            "uri" : "suzanne_head.bin"
        }
    ]
}
